<svg width="49" height="49" viewBox="0 0 49 49" fill="none" xmlns="http://www.w3.org/2000/svg">
<path d="M24.375 0C10.875 0 0 10.875 0 24.375C0 37.875 10.875 48.75 24.375 48.75C37.875 48.75 48.75 37.875 48.75 24.375C48.75 21.7537 48.3975 19.1381 47.46 16.6987L44.415 19.6875C44.79 21.1875 45.0019 22.6912 45.0019 24.375C45.0019 35.8162 35.8181 45 24.3769 45C12.9356 45 3.75 35.8162 3.75 24.375C3.75 12.9337 12.9337 3.75 24.375 3.75C30 3.75 35.0531 5.99062 38.6138 9.55125L41.25 6.915C36.9375 2.59875 30.9375 0 24.375 0ZM45.5269 8.02688L24.375 29.1806L16.3481 21.1519L13.6519 23.8481L23.0269 33.2231L24.375 34.5112L25.7231 33.2231L48.2231 10.7231L45.5269 8.02688Z" fill="#111111"/>
</svg>
