<svg width="37" height="37" viewBox="0 0 37 37" fill="none" xmlns="http://www.w3.org/2000/svg">
<path d="M23.5647 18.0197C22.8968 17.5908 22.1719 17.2581 21.4113 17.0313C20.9447 16.8897 20.428 16.7513 19.8947 16.6197C19.428 16.4897 18.8747 16.3563 18.1913 16.2063C17.3759 16.0354 16.5755 15.799 15.798 15.4997C15.3973 15.344 15.0436 15.0873 14.7713 14.7547C14.5721 14.4824 14.4774 14.1476 14.5047 13.8113C14.504 13.4508 14.6243 13.1004 14.8463 12.8163C15.157 12.4524 15.56 12.1789 16.013 12.0247C16.7749 11.7629 17.5778 11.6409 18.383 11.6647C19.0061 11.6543 19.6273 11.7363 20.2263 11.908C20.6236 12.0198 20.9978 12.2015 21.3313 12.4447C21.547 12.5986 21.7309 12.7927 21.873 13.0163C21.9759 13.2105 22.1162 13.3825 22.2858 13.5223C22.4554 13.662 22.651 13.7669 22.8614 13.8308C23.0717 13.8946 23.2925 13.9163 23.5112 13.8945C23.73 13.8726 23.9422 13.8077 24.1357 13.7036C24.3293 13.5994 24.5003 13.4579 24.6389 13.2874C24.7776 13.1168 24.8811 12.9205 24.9436 12.7098C25.0061 12.4991 25.0263 12.2781 25.003 12.0595C24.9797 11.841 24.9134 11.6292 24.808 11.4363C24.4565 10.8147 23.9818 10.2714 23.413 9.83965C22.7558 9.33477 22.0103 8.95666 21.2147 8.72465C20.2962 8.45331 19.3423 8.32073 18.3847 8.33132C17.1673 8.30512 15.9555 8.50285 14.8097 8.91465C13.7734 9.2919 12.863 9.95111 12.1813 10.818C11.5284 11.6799 11.1749 12.7316 11.1747 13.813C11.1476 14.8895 11.4886 15.9431 12.1413 16.7997C12.7715 17.5933 13.5975 18.209 14.538 18.5863C15.2487 18.8598 15.9763 19.0869 16.7163 19.2663C16.7297 19.2713 16.7397 19.283 16.753 19.2863C17.073 19.383 17.583 19.5113 18.3197 19.6697C18.608 19.733 18.878 19.8013 19.148 19.8697C19.1747 19.8763 19.213 19.8847 19.238 19.893L19.268 19.8963C19.6813 20.003 20.0797 20.1113 20.4447 20.223C20.8931 20.3542 21.3211 20.5472 21.7163 20.7963C21.9628 20.9511 22.1699 21.1611 22.3213 21.4097C22.4679 21.7129 22.5355 22.0483 22.518 22.3847C22.5411 22.82 22.4153 23.2503 22.1613 23.6047C21.8183 24.051 21.3544 24.3894 20.8247 24.5797C20.0351 24.8844 19.1922 25.0272 18.3463 24.9997C17.3681 25.0372 16.395 24.8407 15.508 24.4263C15.0983 24.2081 14.7464 23.8957 14.4813 23.5147C14.2952 23.2709 14.1789 22.9811 14.1447 22.6763C14.1447 22.2343 13.9691 21.8104 13.6565 21.4978C13.3439 21.1852 12.92 21.0097 12.478 21.0097C12.036 21.0097 11.612 21.1852 11.2995 21.4978C10.9869 21.8104 10.8113 22.2343 10.8113 22.6763C10.8388 23.6598 11.1617 24.6122 11.738 25.4097C12.3139 26.2391 13.0811 26.9176 13.9747 27.388C15.3342 28.0513 16.8342 28.3756 18.3463 28.333C19.6313 28.3641 20.9092 28.1345 22.103 27.658C23.2127 27.2322 24.1761 26.4956 24.878 25.5363C25.5452 24.6018 25.8871 23.474 25.8513 22.3263C25.8668 21.4366 25.6515 20.558 25.2263 19.7763C24.8157 19.0706 24.2469 18.4698 23.5647 18.0213M35.5997 21.1513C36.0493 18.4122 35.8403 15.6053 34.99 12.9629C34.1398 10.3206 32.6726 7.91859 30.7099 5.95571C28.7471 3.99283 26.3453 2.52545 23.703 1.67494C21.0607 0.824428 18.2538 0.615232 15.5147 1.06465C13.4923 0.0950196 11.2189 -0.22296 9.00817 0.154606C6.79743 0.532172 4.7584 1.58667 3.17253 3.17253C1.58667 4.7584 0.532172 6.79743 0.154606 9.00817C-0.22296 11.2189 0.0950196 13.4923 1.06465 15.5147C0.615676 18.2534 0.825081 21.0597 1.67555 23.7015C2.52603 26.3432 3.99313 28.7446 5.95557 30.7071C7.91801 32.6695 10.3194 34.1366 12.9612 34.9871C15.603 35.8376 18.4092 36.047 21.148 35.598C23.1703 36.5676 25.4437 36.8856 27.6545 36.508C29.8652 36.1305 31.9042 35.076 33.4901 33.4901C35.076 31.9042 36.1305 29.8652 36.508 27.6545C36.8856 25.4437 36.5676 23.1703 35.598 21.148M25.8313 33.3313C24.5667 33.3308 23.3227 33.0109 22.2147 32.4013C21.8709 32.2119 21.4715 32.1494 21.0863 32.2247C19.0323 32.6343 16.9129 32.583 14.8811 32.0744C12.8493 31.5658 10.9556 30.6125 9.33685 29.2834C7.71806 27.9544 6.41443 26.2825 5.52001 24.3886C4.62559 22.4947 4.16267 20.4258 4.16465 18.3313C4.16637 17.4058 4.25791 16.4825 4.43799 15.5747C4.51339 15.1895 4.45085 14.79 4.26132 14.4463C3.47875 13.023 3.1794 11.3841 3.40829 9.77597C3.63718 8.16789 4.38194 6.67758 5.53058 5.52912C6.67922 4.38067 8.16966 3.63616 9.77778 3.40753C11.3859 3.1789 13.0248 3.47851 14.448 4.26132C14.792 4.45165 15.1923 4.51423 15.578 4.43799C17.6319 4.02859 19.7511 4.08012 21.7827 4.58887C23.8143 5.09762 25.7077 6.0509 27.3263 7.37996C28.9449 8.70902 30.2484 10.3807 31.1427 12.2745C32.037 14.1683 32.4999 16.237 32.498 18.3313C32.4963 19.2569 32.4047 20.1801 32.2247 21.088C32.1493 21.4732 32.2118 21.8726 32.4013 22.2163C33.03 23.3581 33.3502 24.6441 33.3303 25.9475C33.3104 27.2508 32.9511 28.5264 32.2878 29.6485C31.6246 30.7706 30.6803 31.7004 29.548 32.3462C28.4158 32.9921 27.1348 33.3316 25.8313 33.3313Z" fill="#111111"/>
</svg>
