<svg width="37" height="32" viewBox="0 0 37 32" fill="none" xmlns="http://www.w3.org/2000/svg">
<path d="M36.6657 2.18006C36.6656 1.88589 36.5877 1.59697 36.4399 1.34265C36.292 1.08834 36.0795 0.877685 35.8239 0.732099C35.5682 0.586513 35.2786 0.511178 34.9845 0.513747C34.6903 0.516316 34.4021 0.596697 34.149 0.746726C33.1731 1.32808 32.1222 1.77331 31.0257 2.07006C29.4606 0.727183 27.4646 -0.00759045 25.4024 5.91317e-05C23.1402 0.00277001 20.9677 0.884445 19.3435 2.45893C17.7192 4.03341 16.7704 6.17746 16.6974 8.43839C12.237 7.72727 8.19448 5.39927 5.34069 1.89839C5.16873 1.69001 4.94924 1.52599 4.70067 1.42012C4.45211 1.31426 4.18175 1.26965 3.91235 1.29006C3.64302 1.31235 3.38316 1.39987 3.15521 1.54506C2.92727 1.69025 2.73809 1.88874 2.60402 2.12339C1.91656 3.32322 1.52176 4.66827 1.45168 6.04932C1.3816 7.43036 1.63821 8.80847 2.20069 10.0717L2.19735 10.0734C1.944 10.2291 1.7349 10.4473 1.59014 10.707C1.44538 10.9668 1.36981 11.2594 1.37069 11.5567C1.36801 11.8014 1.38305 12.0459 1.41569 12.2884C1.58589 14.3851 2.51508 16.3478 4.02902 17.8084C3.92629 18.0042 3.86365 18.2186 3.84476 18.439C3.82587 18.6593 3.85112 18.8812 3.91902 19.0917C4.57899 21.1487 5.98278 22.8853 7.85569 23.9617C5.95264 24.6975 3.89785 24.9539 1.87235 24.7084C1.49764 24.6618 1.11821 24.7438 0.796202 24.941C0.474194 25.1382 0.228698 25.439 0.0999205 25.7939C-0.0288572 26.1489 -0.0332832 26.537 0.0873676 26.8949C0.208018 27.2527 0.446594 27.5589 0.764021 27.7634C4.2477 30.0068 8.30382 31.1993 12.4474 31.1984C17.1461 31.2513 21.7306 29.7499 25.4878 26.9277C29.2449 24.1056 31.9641 20.1208 33.2224 15.5934C33.8106 13.6213 34.1109 11.5746 34.114 9.51673L34.1124 9.18339C34.9826 8.24473 35.6567 7.14177 36.0952 5.93919C36.5336 4.7366 36.7276 3.45858 36.6657 2.18006ZM31.1557 7.53339C30.8801 7.85875 30.7404 8.27776 30.7657 8.70339C30.7824 8.97839 30.7807 9.25506 30.7807 9.51673C30.7771 11.2554 30.5223 12.9844 30.024 14.6501C28.9968 18.5028 26.7064 21.8993 23.5195 24.2956C20.3326 26.6919 16.4338 27.9494 12.4474 27.8667C11.0159 27.8669 9.58941 27.6986 8.19735 27.3651C9.97287 26.7925 11.633 25.9099 13.1007 24.7584C13.3713 24.5456 13.5694 24.2542 13.6678 23.9243C13.7661 23.5944 13.7599 23.2421 13.6499 22.9158C13.54 22.5896 13.3317 22.3054 13.0537 22.1023C12.7757 21.8993 12.4416 21.7873 12.0974 21.7817C10.7119 21.7601 9.38896 21.2014 8.40735 20.2234C8.65624 20.1767 8.90347 20.1184 9.14902 20.0484C9.50906 19.946 9.82417 19.7255 10.0436 19.4222C10.263 19.119 10.3739 18.7507 10.3585 18.3767C10.3431 18.0027 10.2023 17.6448 9.9587 17.3606C9.7151 17.0764 9.38293 16.8825 9.01569 16.8101C8.21151 16.6512 7.4548 16.309 6.8044 15.8101C6.15401 15.3112 5.62746 14.669 5.26569 13.9334C5.56694 13.9746 5.87013 14.0002 6.17402 14.0101C6.53516 14.016 6.8888 13.9068 7.18368 13.6982C7.47856 13.4896 7.69934 13.1926 7.81402 12.8501C7.92411 12.5047 7.91858 12.1328 7.79827 11.7908C7.67797 11.4489 7.44945 11.1554 7.14736 10.9551C6.41391 10.4668 5.81303 9.8043 5.39854 9.0268C4.98405 8.2493 4.7689 7.38113 4.77235 6.50006C4.77235 6.39006 4.77569 6.27839 4.78235 6.17006C8.51813 9.65444 13.3639 11.7084 18.4657 11.9701C18.7233 11.9798 18.9797 11.9309 19.2157 11.827C19.4516 11.723 19.6607 11.5668 19.8274 11.3701C19.9924 11.1721 20.1093 10.9386 20.1689 10.6879C20.2285 10.4372 20.2291 10.1761 20.1707 9.92506C20.0753 9.52708 20.0266 9.11932 20.0257 8.71006C20.0275 7.28462 20.5945 5.91807 21.6024 4.91013C22.6104 3.90219 23.9769 3.33516 25.4024 3.33339C26.1359 3.33123 26.862 3.48118 27.5347 3.77378C28.2074 4.06638 28.8121 4.49528 29.3107 5.03339C29.5029 5.24026 29.7449 5.3945 30.0136 5.48144C30.2823 5.56837 30.5687 5.58511 30.8457 5.53006C31.5304 5.39697 32.2052 5.21767 32.8657 4.99339C32.4154 5.91476 31.8399 6.76951 31.1557 7.53339Z" fill="#111111"/>
</svg>
